<?xml version="1.0" standalone="no"?>
<!DOCTYPE svg PUBLIC "-//W3C//DTD SVG 20010904//EN"
 "http://www.w3.org/TR/2001/REC-SVG-20010904/DTD/svg10.dtd">
<svg version="1.0" xmlns="http://www.w3.org/2000/svg"
 width="693.000000pt" height="602.000000pt" viewBox="0 0 693.000000 602.000000"
 preserveAspectRatio="xMidYMid meet">

<g transform="translate(0.000000,602.000000) scale(0.100000,-0.100000)"
fill="#000000" stroke="none">
<path d="M2550 6014 c-50 -9 -116 -38 -169 -72 -40 -27 -116 -111 -304 -336
-138 -166 -271 -326 -297 -356 -34 -39 -1094 -1313 -1411 -1695 -10 -11 -61
-72 -114 -135 -212 -253 -243 -393 -130 -595 19 -33 107 -148 197 -255 90
-108 576 -691 1081 -1297 592 -710 935 -1114 965 -1137 84 -61 144 -80 254
-79 90 0 103 3 173 36 169 81 261 244 241 429 -14 128 -16 131 -781 1050 -390
469 -740 889 -777 933 -37 44 -68 86 -68 93 0 9 340 12 1663 13 914 1 2076 4
2582 8 l920 6 66 31 c142 67 239 218 239 371 0 167 -97 321 -245 390 -53 24
-77 28 -200 34 -77 4 -1239 8 -2582 8 -1343 1 -2444 4 -2446 9 -2 4 112 147
255 317 142 171 305 366 362 435 57 69 291 350 521 625 463 556 480 579 491
715 20 237 -154 441 -386 454 -41 3 -86 2 -100 0z"/>
</g>
</svg>
